<?xml version="1.0" encoding="utf-8"?>
<!-- Generator: Adobe Illustrator 25.4.1, SVG Export Plug-In . SVG Version: 6.00 Build 0)  -->
<svg version="1.1" id="Capa_1" xmlns="http://www.w3.org/2000/svg" xmlns:xlink="http://www.w3.org/1999/xlink" x="0px" y="0px"
	 viewBox="0 0 50 16.2" style="enable-background:new 0 0 50 16.2;" xml:space="preserve">
<style type="text/css">
	.st0{fill:#FF8F00;}
	.st1{fill:#404040;}
	.st2{fill:#004086;}
</style>
<g>
	<g>
		<g>
			<path class="st0" d="M33.6,3.3c-0.8,0-1.4,0.3-2,0.9l-0.2-0.7h-1.3v8.9l1.5-0.2v-3c0.6,0.6,1.2,0.8,2,0.8c1.6,0,3-1.4,3-3.3
				C36.5,4.7,35.2,3.3,33.6,3.3z M33.4,8.6c-1,0-1.7-0.8-1.7-1.9c0-1.1,0.7-1.9,1.7-1.9c1.1,0,1.7,0.8,1.7,1.9
				C35.1,7.8,34.4,8.6,33.4,8.6z"/>
			<path class="st0" d="M43.5,3.5H45l1.6,4l1.8-4H50l-4,8.7l-1.6,0.2l1.5-3.2L43.5,3.5z"/>
			<path class="st0" d="M41.8,9.2c-0.6,0.5-1.2,0.8-2,0.8c-1.6,0-3-1.4-3-3.3c0-2,1.3-3.4,3-3.4c0.8,0,1.4,0.3,2,0.9L42,3.5h1.3v6.4
				H42L41.8,9.2z M38.3,6.7c0,1.1,0.7,1.9,1.7,1.9c1,0,1.7-0.7,1.7-1.9c0-1.1-0.7-1.9-1.7-1.9C38.9,4.8,38.3,5.6,38.3,6.7z"/>
		</g>
		<g>
			<path class="st1" d="M14.3,3.3c-0.8,0-1.4,0.3-2,0.9l-0.2-0.7h-1.3v8.9l1.5-0.2v-3c0.6,0.5,1.2,0.8,2,0.8c1.6,0,2.9-1.4,2.9-3.3
				C17.2,4.7,15.9,3.3,14.3,3.3z M14.1,8.6c-1,0-1.7-0.8-1.7-1.9c0-1.1,0.7-1.9,1.7-1.9c1.1,0,1.7,0.8,1.7,1.9
				C15.8,7.8,15.1,8.6,14.1,8.6z"/>
			<path class="st1" d="M25.6,4.1c0.6-0.5,1.2-0.8,1.9-0.8c1.2,0,2.1,0.9,2.1,2.3v4.3H28v-3c0-1.3-0.1-2.2-1.1-2.2
				c-0.4,0-0.8,0.2-1.1,0.6c-0.3,0.5-0.3,1.2-0.3,1.9v2.7h-1.5V3.5h1.3L25.6,4.1z"/>
			<path class="st1" d="M23.7,6.8c0-1.8-1.1-3.4-3.1-3.4c-1.9,0-3.2,1.5-3.2,3.3v0c0,2,1.5,3.3,3.3,3.3c1.2,0,2.1-0.5,2.7-1.2
				L22.6,8c-0.5,0.5-1,0.7-1.8,0.7c-0.9,0-1.6-0.5-1.8-1.4h4.8C23.7,7.3,23.7,6.8,23.7,6.8z M20.6,4.6c0.9,0,1.5,0.7,1.6,1.5H19
				C19.1,5.2,19.8,4.6,20.6,4.6z"/>
			<path class="st1" d="M5.1,0C2.3,0,0,2.2,0,5.1c0,2.9,2.2,5.2,5.2,5.2c2.8,0,5.1-2.2,5.1-5.1C10.3,2.2,7.9,0,5.1,0z"/>
		</g>
		<g>
			<path class="st2" d="M37.7,14.2L37,15.5c0,0-0.1,0-0.1,0l-0.7-1.3c0,0,0,0,0,0H36c0,0,0,0,0,0l1,2c0,0,0.1,0,0.1,0l1-2
				c0,0,0,0,0,0L37.7,14.2C37.7,14.2,37.7,14.2,37.7,14.2"/>
			<path class="st2" d="M38.1,16l0.7-1.3c0,0,0.1,0,0.1,0l0.7,1.3c0,0,0,0,0,0h0.3c0,0,0,0,0,0l-1-2c0,0-0.1,0-0.1,0l-1,2
				c0,0,0,0,0,0L38.1,16C38.1,16,38.1,16,38.1,16"/>
			<path class="st2" d="M33.1,15.9h-0.6c0,0,0,0,0,0v-0.5c0,0,0,0,0,0h0.6c0.3,0,0.4,0.1,0.4,0.3S33.4,15.9,33.1,15.9 M32.5,14.5
				h0.6c0.2,0,0.3,0.1,0.3,0.3S33.3,15,33.1,15h-0.6c0,0,0,0,0,0L32.5,14.5C32.5,14.5,32.5,14.5,32.5,14.5 M33.5,15.1
				c0.1-0.1,0.2-0.2,0.2-0.4c0-0.3-0.2-0.5-0.6-0.5h-1c0,0,0,0,0,0v2c0,0,0,0,0,0h1c0.5,0,0.7-0.2,0.7-0.6
				C33.8,15.2,33.5,15.1,33.5,15.1"/>
			<path class="st2" d="M35.2,15.9h-0.6c0,0,0,0,0,0v-0.5c0,0,0,0,0,0h0.6c0.3,0,0.4,0.1,0.4,0.3S35.4,15.9,35.2,15.9 M34.5,14.5
				h0.6c0.2,0,0.3,0.1,0.3,0.3S35.4,15,35.1,15h-0.6c0,0,0,0,0,0L34.5,14.5C34.5,14.5,34.5,14.5,34.5,14.5 M35.6,15.1
				c0.1-0.1,0.2-0.2,0.2-0.4c0-0.3-0.2-0.5-0.6-0.5h-1c0,0,0,0,0,0v2c0,0,0,0,0,0h1c0.5,0,0.7-0.2,0.7-0.6
				C35.9,15.2,35.6,15.1,35.6,15.1"/>
		</g>
		<g>
			<path class="st1" d="M41.3,14.7c0.1,0,0.2,0,0.3,0.1s0.2,0.1,0.2,0.2l-0.2,0.1c0-0.1-0.1-0.1-0.1-0.1c-0.1,0-0.1-0.1-0.2-0.1
				c-0.1,0-0.2,0-0.3,0.1s-0.1,0.2-0.1,0.3c0,0.1,0,0.2,0.1,0.3c0.1,0.1,0.2,0.1,0.3,0.1c0.1,0,0.3-0.1,0.3-0.2l0.2,0.2
				c-0.1,0.1-0.1,0.1-0.2,0.2C41.5,16,41.4,16,41.3,16c-0.1,0-0.2,0-0.3-0.1c-0.1,0-0.2-0.1-0.2-0.1c-0.1-0.1-0.1-0.1-0.1-0.2
				c0-0.1-0.1-0.2-0.1-0.3c0-0.1,0-0.2,0.1-0.3c0-0.1,0.1-0.1,0.1-0.2c0.1-0.1,0.1-0.1,0.2-0.1C41.1,14.7,41.2,14.7,41.3,14.7z"/>
			<path class="st1" d="M42.6,14.7c0.1,0,0.2,0,0.3,0.1s0.2,0.1,0.2,0.2c0.1,0.1,0.1,0.2,0.1,0.3s0,0.2-0.1,0.3
				c-0.1,0.1-0.1,0.2-0.2,0.2C42.8,16,42.7,16,42.6,16c-0.1,0-0.2,0-0.3-0.1c-0.1,0-0.2-0.1-0.2-0.1C42,15.8,42,15.7,42,15.6
				c0-0.1-0.1-0.2-0.1-0.3c0-0.1,0-0.2,0.1-0.3s0.1-0.2,0.1-0.2c0.1-0.1,0.1-0.1,0.2-0.1C42.4,14.7,42.5,14.7,42.6,14.7z M42.6,14.9
				c-0.1,0-0.2,0-0.3,0.1c-0.1,0.1-0.1,0.2-0.1,0.3s0,0.2,0.1,0.3c0.1,0.1,0.2,0.1,0.3,0.1s0.2,0,0.3-0.1c0.1-0.1,0.1-0.2,0.1-0.3
				s0-0.2-0.1-0.3C42.8,15,42.7,14.9,42.6,14.9z"/>
			<path class="st1" d="M44.9,16h-0.3v-1l-0.3,0.8H44L43.7,15v1h-0.3v-1.3h0.4l0.3,0.9l0.3-0.9h0.4L44.9,16L44.9,16z"/>
			<path class="st1" d="M45.4,15.5V16h-0.3v-1.3h0.5c0.2,0,0.3,0,0.3,0.1c0.1,0.1,0.1,0.2,0.1,0.3c0,0.1,0,0.2-0.1,0.3
				c-0.1,0.1-0.2,0.1-0.3,0.1C45.6,15.5,45.4,15.5,45.4,15.5z M45.4,14.9v0.3h0.3c0.1,0,0.2-0.1,0.2-0.2c0-0.1-0.1-0.2-0.2-0.2
				L45.4,14.9L45.4,14.9z"/>
			<path class="st1" d="M47.4,16h-0.3L47,15.7h-0.5L46.3,16h-0.3l0.5-1.3h0.3L47.4,16z M46.5,15.4h0.4L46.7,15L46.5,15.4z"/>
			<path class="st1" d="M48.7,16h-0.2l-0.6-0.9V16h-0.3v-1.3h0.2l0.7,0.9v-0.9h0.3L48.7,16L48.7,16z"/>
			<path class="st1" d="M49.5,15.5V16h-0.3v-0.5l-0.5-0.8H49l0.3,0.5l0.3-0.5H50L49.5,15.5z"/>
		</g>
		<path class="st1" d="M31.4,16h-0.3L31,15.7h-0.5L30.4,16h-0.3l0.5-1.3h0.3L31.4,16z M30.6,15.4h0.4L30.8,15L30.6,15.4z"/>
		<path class="st0" d="M8.2,5.2c0,1.7-1.4,3.1-3.1,3.1C3.5,8.3,2.1,7,2.1,5.2c0-1.9,1.4-3.1,3.1-3.1c0.9,0,3.1,0,3.1,0
			S8.2,4.3,8.2,5.2z"/>
	</g>
</g>
</svg>
